<svg width="24" height="24" viewBox="0 0 34 34" fill="none" xmlns="http://www.w3.org/2000/svg">
<path d="M31.3846 0H2.61543C1.92179 0 1.25655 0.298511 0.766075 0.829864C0.275596 1.36122 4.73618e-05 2.08189 4.73618e-05 2.83333V31.1667C-0.00296863 31.707 0.138118 32.2367 0.406347 32.6922C0.674576 33.1477 1.05853 33.5096 1.51206 33.7344C1.85767 33.9087 2.23419 33.9994 2.61543 34C3.2294 33.9984 3.82299 33.7613 4.29091 33.3306C4.29871 33.3251 4.30584 33.3186 4.31216 33.3111L9.56253 28.3333H31.3846C32.0783 28.3333 32.7435 28.0348 33.234 27.5035C33.7245 26.9721 34 26.2514 34 25.5V2.83333C34 2.08189 33.7245 1.36122 33.234 0.829864C32.7435 0.298511 32.0783 0 31.3846 0ZM9.80773 16.2917C9.41977 16.2917 9.04053 16.167 8.71796 15.9335C8.39538 15.7 8.14397 15.3682 7.9955 14.9799C7.84704 14.5916 7.80819 14.1643 7.88388 13.7521C7.95957 13.3399 8.14638 12.9613 8.42071 12.6641C8.69504 12.3669 9.04455 12.1645 9.42505 12.0825C9.80555 12.0005 10.1999 12.0426 10.5584 12.2034C10.9168 12.3643 11.2231 12.6366 11.4387 12.9861C11.6542 13.3355 11.7693 13.7464 11.7693 14.1667C11.7693 14.7303 11.5626 15.2708 11.1947 15.6693C10.8269 16.0678 10.328 16.2917 9.80773 16.2917ZM17 16.2917C16.6121 16.2917 16.2328 16.167 15.9103 15.9335C15.5877 15.7 15.3363 15.3682 15.1878 14.9799C15.0393 14.5916 15.0005 14.1643 15.0762 13.7521C15.1519 13.3399 15.3387 12.9613 15.613 12.6641C15.8873 12.3669 16.2368 12.1645 16.6173 12.0825C16.9978 12.0005 17.3922 12.0426 17.7507 12.2034C18.1091 12.3643 18.4154 12.6366 18.631 12.9861C18.8465 13.3355 18.9616 13.7464 18.9616 14.1667C18.9616 14.7303 18.7549 15.2708 18.387 15.6693C18.0192 16.0678 17.5203 16.2917 17 16.2917ZM24.1923 16.2917C23.8044 16.2917 23.4251 16.167 23.1026 15.9335C22.78 15.7 22.5286 15.3682 22.3801 14.9799C22.2316 14.5916 22.1928 14.1643 22.2685 13.7521C22.3442 13.3399 22.531 12.9613 22.8053 12.6641C23.0796 12.3669 23.4291 12.1645 23.8096 12.0825C24.1901 12.0005 24.5845 12.0426 24.943 12.2034C25.3014 12.3643 25.6077 12.6366 25.8233 12.9861C26.0388 13.3355 26.1539 13.7464 26.1539 14.1667C26.1539 14.7303 25.9472 15.2708 25.5793 15.6693C25.2115 16.0678 24.7126 16.2917 24.1923 16.2917Z" fill="white"/>
</svg>
