<svg width="28" height="20" viewBox="0 0 28 20" fill="none" xmlns="http://www.w3.org/2000/svg">
<path d="M3 20C2.3125 20 1.72375 19.755 1.23375 19.265C0.743752 18.775 0.499169 18.1867 0.500002 17.5V2.5C0.500002 1.8125 0.745002 1.22375 1.235 0.733752C1.725 0.243752 2.31334 -0.000831211 3 2.12224e-06H10.5L13 2.5H23C23.6875 2.5 24.2763 2.745 24.7663 3.235C25.2563 3.725 25.5008 4.31334 25.5 5H3V17.5L6 7.5H27.375L24.1563 18.2188C23.9896 18.7604 23.6821 19.1929 23.2338 19.5163C22.7854 19.8396 22.2908 20.0008 21.75 20H3Z" fill="white"/>
</svg>
