<svg width="28" height="28" viewBox="0 0 26 26" fill="none" xmlns="http://www.w3.org/2000/svg">
<path d="M23.7667 25.75L14.8417 16.825C14.1333 17.3917 13.3187 17.8403 12.3979 18.1708C11.4771 18.5014 10.4972 18.6667 9.45833 18.6667C6.88472 18.6667 4.70683 17.7751 2.92467 15.992C1.1425 14.2089 0.250944 12.031 0.25 9.45833C0.25 6.88472 1.14156 4.70683 2.92467 2.92467C4.70778 1.1425 6.88567 0.250944 9.45833 0.25C12.0319 0.25 14.2098 1.14156 15.992 2.92467C17.7742 4.70778 18.6657 6.88567 18.6667 9.45833C18.6667 10.4972 18.5014 11.4771 18.1708 12.3979C17.8403 13.3187 17.3917 14.1333 16.825 14.8417L25.75 23.7667L23.7667 25.75ZM9.45833 15.8333C11.2292 15.8333 12.7346 15.2133 13.9747 13.9733C15.2147 12.7332 15.8343 11.2282 15.8333 9.45833C15.8333 7.6875 15.2133 6.18205 13.9733 4.942C12.7332 3.70194 11.2282 3.08239 9.45833 3.08333C7.6875 3.08333 6.18205 3.70336 4.942 4.94342C3.70194 6.18347 3.08239 7.68844 3.08333 9.45833C3.08333 11.2292 3.70336 12.7346 4.94342 13.9747C6.18347 15.2147 7.68844 15.8343 9.45833 15.8333Z" fill="#F8F8F8"/>
</svg>
