<svg width="24" height="24" viewBox="0 0 34 34" fill="none" xmlns="http://www.w3.org/2000/svg">
<g clip-path="url(#clip0_100_4)">
<path d="M17 34C12.4913 34 8.1673 32.2089 4.97918 29.0208C1.79107 25.8327 0 21.5087 0 17C0 12.4913 1.79107 8.1673 4.97918 4.97918C8.1673 1.79107 12.4913 0 17 0C21.5087 0 25.8327 1.79107 29.0208 4.97918C32.2089 8.1673 34 12.4913 34 17C34 21.5087 32.2089 25.8327 29.0208 29.0208C25.8327 32.2089 21.5087 34 17 34ZM20.4 11.9C20.4 12.376 20.043 13.26 19.686 13.6L17 16.286C16.031 17.272 15.3 19.006 15.3 20.4V22.1H18.7V20.4C18.7 19.907 19.057 19.04 19.414 18.7L22.1 16.014C23.069 15.028 23.8 13.294 23.8 11.9C23.8 10.0965 23.0836 8.36692 21.8083 7.09167C20.5331 5.81643 18.8035 5.1 17 5.1C15.1965 5.1 13.4669 5.81643 12.1917 7.09167C10.9164 8.36692 10.2 10.0965 10.2 11.9H13.6C13.6 10.9983 13.9582 10.1335 14.5958 9.49584C15.2335 8.85821 16.0983 8.5 17 8.5C17.9017 8.5 18.7665 8.85821 19.4042 9.49584C20.0418 10.1335 20.4 10.9983 20.4 11.9ZM15.3 25.5V28.9H18.7V25.5H15.3Z" fill="white"/>
</g>
<defs>
<clipPath id="clip0_100_4">
<rect width="34" height="34" fill="white"/>
</clipPath>
</defs>
</svg>
