<svg width="24" height="24" viewBox="4 4 26 26" fill="none" xmlns="http://www.w3.org/2000/svg">
<path d="M17.34 5.57599C23.341 5.57599 28.271 10.013 29.104 15.776H32.64L26.69 22.576L20.74 15.776H24.684C24.3037 14.1119 23.3704 12.6259 22.0365 11.5606C20.7026 10.4954 19.047 9.91385 17.34 9.91099C14.875 9.91099 12.699 11.118 11.322 12.937L8.41498 9.62199C9.52766 8.34964 10.8998 7.33026 12.4393 6.63238C13.9787 5.9345 15.6497 5.5743 17.34 5.57599ZM16.66 28.424C10.676 28.424 5.72899 23.987 4.89599 18.224H1.35999L7.30999 11.424C9.29899 13.685 11.271 15.963 13.26 18.224H9.31599C9.6963 19.8881 10.6296 21.3741 11.9635 22.4394C13.2973 23.5046 14.953 24.0861 16.66 24.089C19.125 24.089 21.301 22.882 22.678 21.063L25.585 24.378C24.4734 25.6516 23.1014 26.6719 21.5617 27.3699C20.022 28.0679 18.3505 28.4274 16.66 28.424Z" fill="white"/>
</svg>
