<svg width="34" height="34" viewBox="0 0 34 34" fill="none" xmlns="http://www.w3.org/2000/svg">
<path d="M17 20.7188C20.1178 20.7188 22.6445 18.2219 22.6445 15.1406V7.70312C22.6445 4.62187 20.1178 2.125 17 2.125C13.8822 2.125 11.3555 4.62187 11.3555 7.70312V15.1406C11.3555 18.2219 13.8822 20.7188 17 20.7188ZM27.957 15.0742C27.957 14.9281 27.8375 14.8086 27.6914 14.8086H25.6992C25.5531 14.8086 25.4336 14.9281 25.4336 15.0742C25.4336 19.7326 21.6584 23.5078 17 23.5078C12.3416 23.5078 8.56641 19.7326 8.56641 15.0742C8.56641 14.9281 8.44688 14.8086 8.30078 14.8086H6.30859C6.1625 14.8086 6.04297 14.9281 6.04297 15.0742C6.04297 20.6756 10.2465 25.2975 15.6719 25.9516V29.3516H10.8475C10.3926 29.3516 10.0273 29.8264 10.0273 30.4141V31.6094C10.0273 31.7555 10.1203 31.875 10.2332 31.875H23.7668C23.8797 31.875 23.9727 31.7555 23.9727 31.6094V30.4141C23.9727 29.8264 23.6074 29.3516 23.1525 29.3516H18.1953V25.9682C23.6838 25.3705 27.957 20.7221 27.957 15.0742Z" fill="white"/>
</svg>
