<svg width="34" height="34" viewBox="0 0 34 34" fill="none" xmlns="http://www.w3.org/2000/svg">
<path d="M8.5 7.0125C8.5 5.525 9.775 4.25 11.2625 4.25H18.275C22.525 4.25 25.7125 7.8625 25.7125 11.6875C25.7125 13.175 25.2875 14.6625 24.4375 15.725C25.925 17 26.9875 19.125 26.9875 21.675C26.9875 26.775 22.7375 29.5375 19.125 29.5375H11.2625C9.775 29.75 8.5 28.475 8.5 26.9875V7.0125ZM14.025 9.775V13.8125H18.275C19.3375 13.8125 20.4 12.9625 20.4 11.6875C20.4 10.625 19.55 9.5625 18.275 9.5625H14.025V9.775ZM14.025 19.3375V24.4375H19.125C20.4 24.4375 21.675 23.375 21.675 21.8875C21.675 20.4 20.4 19.3375 19.125 19.3375H14.025Z" fill="white"/>
</svg>
