<svg width="34" height="34" viewBox="0 0 34 34" fill="none" xmlns="http://www.w3.org/2000/svg">
<path d="M27.625 4.78125H12.75C10.3548 4.78125 8.05763 5.73275 6.36394 7.42644C4.67025 9.12013 3.71875 11.4173 3.71875 13.8125C3.71875 16.2077 4.67025 18.5049 6.36394 20.1986C8.05763 21.8922 10.3548 22.8438 12.75 22.8438H17.5312V27.625C17.5312 28.0477 17.6992 28.4531 17.998 28.752C18.2969 29.0508 18.7023 29.2188 19.125 29.2188C19.5477 29.2188 19.9531 29.0508 20.252 28.752C20.5508 28.4531 20.7188 28.0477 20.7188 27.625V7.96875H22.8438V27.625C22.8438 28.0477 23.0117 28.4531 23.3105 28.752C23.6094 29.0508 24.0148 29.2188 24.4375 29.2188C24.8602 29.2188 25.2656 29.0508 25.5645 28.752C25.8633 28.4531 26.0312 28.0477 26.0312 27.625V7.96875H27.625C28.0477 7.96875 28.4531 7.80084 28.752 7.50195C29.0508 7.20307 29.2188 6.79769 29.2188 6.375C29.2188 5.95231 29.0508 5.54693 28.752 5.24805C28.4531 4.94916 28.0477 4.78125 27.625 4.78125ZM17.5312 19.6562H12.75C11.2001 19.6562 9.71376 19.0406 8.61784 17.9447C7.52193 16.8487 6.90625 15.3624 6.90625 13.8125C6.90625 12.2626 7.52193 10.7763 8.61784 9.68034C9.71376 8.58443 11.2001 7.96875 12.75 7.96875H17.5312V19.6562Z" fill="white"/>
</svg>
