<svg width="26" height="30" viewBox="0 0 26 30" fill="none" xmlns="http://www.w3.org/2000/svg">
<path d="M3 13V12H2V13H3ZM11 13V12H10V13H11ZM11 21H10V22H11V21ZM25 7H26V6.586L25.708 6.292L25 7ZM19 1L19.708 0.292L19.414 0H19V1ZM3 14H5V12H3V14ZM4 22V17H2V22H4ZM4 17V13H2V17H4ZM5 16H3V18H5V16ZM6 15C6 15.2652 5.89464 15.5196 5.70711 15.7071C5.51957 15.8946 5.26522 16 5 16V18C5.79565 18 6.55871 17.6839 7.12132 17.1213C7.68393 16.5587 8 15.7956 8 15H6ZM5 14C5.26522 14 5.51957 14.1054 5.70711 14.2929C5.89464 14.4804 6 14.7348 6 15H8C8 14.2044 7.68393 13.4413 7.12132 12.8787C6.55871 12.3161 5.79565 12 5 12V14ZM10 13V21H12V13H10ZM11 22H13V20H11V22ZM16 19V15H14V19H16ZM13 12H11V14H13V12ZM16 15C16 14.2044 15.6839 13.4413 15.1213 12.8787C14.5587 12.3161 13.7956 12 13 12V14C13.2652 14 13.5196 14.1054 13.7071 14.2929C13.8946 14.4804 14 14.7348 14 15H16ZM13 22C13.7956 22 14.5587 21.6839 15.1213 21.1213C15.6839 20.5587 16 19.7957 16 19H14C14 19.2652 13.8946 19.5196 13.7071 19.7071C13.5196 19.8946 13.2652 20 13 20V22ZM18 12V22H20V12H18ZM19 14H24V12H19V14ZM19 18H22V16H19V18ZM2 10V3H0V10H2ZM24 7V10H26V7H24ZM3 2H19V0H3V2ZM18.292 1.708L24.292 7.708L25.708 6.292L19.708 0.292L18.292 1.708ZM2 3C2 2.73478 2.10536 2.48043 2.29289 2.29289C2.48043 2.10536 2.73478 2 3 2V0C2.20435 0 1.44129 0.316071 0.87868 0.87868C0.316071 1.44129 0 2.20435 0 3H2ZM0 24V27H2V24H0ZM3 30H23V28H3V30ZM26 27V24H24V27H26ZM23 30C23.7957 30 24.5587 29.6839 25.1213 29.1213C25.6839 28.5587 26 27.7956 26 27H24C24 27.2652 23.8946 27.5196 23.7071 27.7071C23.5196 27.8946 23.2652 28 23 28V30ZM0 27C0 27.7956 0.316071 28.5587 0.87868 29.1213C1.44129 29.6839 2.20435 30 3 30V28C2.73478 28 2.48043 27.8946 2.29289 27.7071C2.10536 27.5196 2 27.2652 2 27H0Z" fill="white"/>
</svg>
