<svg width="34" height="34" viewBox="0 0 34 34" fill="none" xmlns="http://www.w3.org/2000/svg">
<path d="M22.6667 11.3333V7.08333H11.3333V11.3333H8.49999V4.25H25.5V11.3333H22.6667ZM25.5 17.7083C25.9014 17.7083 26.2381 17.5723 26.5101 17.3003C26.7821 17.0283 26.9176 16.6921 26.9167 16.2917C26.9167 15.8903 26.7807 15.5536 26.5087 15.2816C26.2367 15.0096 25.9004 14.8741 25.5 14.875C25.0986 14.875 24.7619 15.011 24.4899 15.283C24.2179 15.555 24.0824 15.8912 24.0833 16.2917C24.0833 16.6931 24.2193 17.0298 24.4913 17.3018C24.7633 17.5738 25.0995 17.7093 25.5 17.7083ZM22.6667 26.9167V21.25H11.3333V26.9167H22.6667ZM25.5 29.75H8.49999V24.0833H2.83333V15.5833C2.83333 14.3792 3.24652 13.3696 4.07291 12.5545C4.8993 11.7394 5.90277 11.3324 7.08333 11.3333H26.9167C28.1208 11.3333 29.1304 11.7409 29.9455 12.5559C30.7606 13.371 31.1676 14.3801 31.1667 15.5833V24.0833H25.5V29.75ZM28.3333 21.25V15.5833C28.3333 15.1819 28.1973 14.8452 27.9253 14.5732C27.6533 14.3012 27.3171 14.1657 26.9167 14.1667H7.08333C6.68194 14.1667 6.34525 14.3027 6.07325 14.5747C5.80125 14.8467 5.66572 15.1829 5.66666 15.5833V21.25H8.49999V18.4167H25.5V21.25H28.3333Z" fill="white"/>
</svg>
