<svg width="26" height="26" viewBox="0 0 26 26" fill="none" xmlns="http://www.w3.org/2000/svg">
<path d="M25.5 5.66667V22.6667C25.5 23.4458 25.2223 24.1131 24.667 24.6684C24.1117 25.2238 23.4449 25.5009 22.6667 25.5H2.83334C2.05417 25.5 1.38692 25.2223 0.831586 24.667C0.276252 24.1117 -0.000942039 23.4449 2.40521e-06 22.6667V2.83334C2.40521e-06 2.05417 0.277669 1.38692 0.833002 0.831586C1.38834 0.276252 2.05511 -0.000942039 2.83334 2.40521e-06H19.8333L25.5 5.66667ZM22.6667 6.87084L18.6292 2.83334H2.83334V22.6667H22.6667V6.87084ZM12.75 21.25C13.9306 21.25 14.934 20.8368 15.7604 20.0104C16.5868 19.184 17 18.1806 17 17C17 15.8194 16.5868 14.816 15.7604 13.9896C14.934 13.1632 13.9306 12.75 12.75 12.75C11.5694 12.75 10.566 13.1632 9.73959 13.9896C8.9132 14.816 8.5 15.8194 8.5 17C8.5 18.1806 8.9132 19.184 9.73959 20.0104C10.566 20.8368 11.5694 21.25 12.75 21.25ZM4.25 9.91667H17V4.25H4.25V9.91667ZM2.83334 6.87084V22.6667V2.83334V6.87084Z" fill="white"/>
</svg>
