<svg width="34" height="34" viewBox="0 0 34 34" fill="none" xmlns="http://www.w3.org/2000/svg">
<path d="M9.91666 26.9167V24.0834H19.975C21.4625 24.0834 22.7554 23.6111 23.8538 22.6667C24.9522 21.7222 25.5009 20.5417 25.5 19.125C25.5 17.7084 24.9508 16.5278 23.8524 15.5834C22.754 14.6389 21.4615 14.1667 19.975 14.1667H11.05L14.7333 17.85L12.75 19.8334L5.66666 12.75L12.75 5.66669L14.7333 7.65002L11.05 11.3334H19.975C22.2653 11.3334 24.2311 12.0771 25.8726 13.5646C27.514 15.0521 28.3343 16.9056 28.3333 19.125C28.3333 21.3445 27.5126 23.1979 25.8712 24.6854C24.2297 26.1729 22.2643 26.9167 19.975 26.9167H9.91666Z" fill="white"/>
</svg>
