<svg width="147" height="147" viewBox="0 0 147 147" fill="none" xmlns="http://www.w3.org/2000/svg">
<g clip-path="url(#clip0_60_87)">
<path d="M47.6715 116.969C47.5728 108.754 45.7371 102.11 42.1605 97.0398C36.7965 89.436 24.6712 89.624 22.2486 82.6918C19.826 75.7597 29.8974 67.2796 34.1701 61.7856C38.4452 56.2923 27.2514 50.6201 29.1517 49.2616C30.4172 48.3547 37.3974 46.72 50.0887 44.3513C58.48 27.379 72.6963 21.8327 92.7409 27.7185C122.806 36.5464 126.775 65.3984 122.014 81.6124C117.255 97.8218 98.2572 111.213 77.3942 109.179C74.8726 111.231 75.9309 117.051 80.5713 126.63" stroke="white" stroke-opacity="0.2" stroke-width="4.667" stroke-linecap="round" stroke-linejoin="round"/>
<path d="M69.1979 47.7077C65.9002 53.2318 65.125 57.5648 66.8752 60.7049C68.6238 63.8419 72.3482 66.6547 78.0505 69.1362C74.4419 76.4521 75.0194 80.5495 79.7778 81.4291C84.5354 82.3111 87.8754 81.2063 89.7941 78.1187C96.4162 82.2666 100.828 81.7173 103.027 76.4702C106.325 68.5992 103.843 60.822 102.043 60.2935C100.246 59.7658 95.6494 58.1778 96.3801 55.6893C97.1108 53.2009 92.0789 50.1989 87.1657 48.7562C82.2524 47.3135 86.181 44.8673 79.0506 44.1955C74.2962 43.7474 71.0114 44.9172 69.1979 47.7077Z" stroke="white" stroke-opacity="0.2" stroke-width="4" stroke-linejoin="round"/>
<path d="M87.5254 81.2727C84.6896 82.0567 80.6726 83.5648 78.7177 85.0917C73.8328 88.9097 70.1592 91.0285 68.6386 93.9384" stroke="white" stroke-opacity="0.2" stroke-width="4" stroke-linecap="round"/>
</g>
<defs>
<clipPath id="clip0_60_87">
<rect width="118" height="118" fill="white" transform="translate(33.2451) rotate(16.364)"/>
</clipPath>
</defs>
</svg>
