<svg width="173" height="173" viewBox="0 0 173 173" fill="none" xmlns="http://www.w3.org/2000/svg">
<g clip-path="url(#clip0_60_84)">
<path fill-rule="evenodd" clip-rule="evenodd" d="M29.7007 62.535L33.5998 72.9988L75.455 57.4022L77.4046 62.6341L30.3175 80.1803C26.1547 81.7315 22.7787 84.8728 20.932 88.9131C19.0853 92.9535 18.9193 97.562 20.4705 101.725L32.1679 133.116C33.7191 137.279 36.8604 140.655 40.9008 142.502C44.9411 144.348 49.5496 144.514 53.7124 142.963L116.495 119.568C120.433 118.101 123.675 115.208 125.58 111.462C127.484 107.717 127.911 103.392 126.775 99.346L159.683 91.5583L144.087 49.7031L114.107 65.3492C112.318 61.547 109.165 58.5561 105.274 56.9698C101.383 55.3835 97.0377 55.3177 93.1003 56.7854L87.8684 58.735L83.9692 48.2712C83.4522 46.8836 82.4051 45.7583 81.0583 45.1427C79.7115 44.5271 78.1754 44.4718 76.7878 44.9889L29.7007 62.535ZM118.088 75.8719L122.899 88.7843L144.802 83.6019L138.04 65.4577L118.088 75.8719ZM104.181 70.5315C103.664 69.144 102.617 68.0186 101.27 67.4031C99.9232 66.7875 98.387 66.7322 96.9994 67.2492L34.2166 90.6441C32.8291 91.1612 31.7037 92.2083 31.0881 93.555C30.4726 94.9018 30.4172 96.438 30.9343 97.8256L42.6317 129.217C43.1488 130.605 44.1959 131.73 45.5427 132.345C46.8895 132.961 48.4256 133.016 49.8132 132.499L112.596 109.104C113.984 108.587 115.109 107.54 115.725 106.193C116.34 104.847 116.395 103.311 115.878 101.923L104.181 70.5315Z" fill="white" fill-opacity="0.3"/>
</g>
<defs>
<clipPath id="clip0_60_84">
<rect width="134" height="134" fill="white" transform="translate(0 46.7898) rotate(-20.437)"/>
</clipPath>
</defs>
</svg>
