<svg width="283" height="320" viewBox="0 0 283 320" fill="none" xmlns="http://www.w3.org/2000/svg">
<g filter="url(#filter0_d_60_80)">
<path d="M230.651 275.868L197.374 213.373C216.34 200.945 229.785 181.684 234.911 159.595C240.037 137.507 236.45 114.293 224.897 94.782C213.343 75.271 194.712 60.9653 172.88 54.8409C151.047 48.7166 127.694 51.245 107.678 61.9003C87.6624 72.5556 72.5251 90.5174 65.4152 112.049C58.3053 133.581 59.7702 157.025 69.5052 177.504C79.2402 197.983 96.4957 213.921 117.682 222.002C138.869 230.082 162.355 229.684 183.255 220.889L216.52 283.391C217.014 284.319 217.686 285.141 218.497 285.809C219.309 286.477 220.244 286.979 221.249 287.286C222.254 287.592 223.31 287.698 224.357 287.597C225.403 287.496 226.419 287.189 227.347 286.695C228.275 286.201 229.096 285.53 229.764 284.718C230.433 283.907 230.935 282.972 231.241 281.966C231.548 280.961 231.654 279.905 231.553 278.859C231.451 277.812 231.145 276.796 230.651 275.868ZM80.2913 118.798C84.448 105.178 92.5502 93.0966 103.573 84.0812C114.596 75.0659 128.045 69.5217 142.219 68.1498C156.393 66.7779 170.656 69.6399 183.203 76.3739C195.751 83.1078 206.019 93.4113 212.711 105.981C219.403 118.552 222.217 132.824 220.797 146.993C219.377 161.162 213.788 174.592 204.735 185.585C195.683 196.578 183.574 204.639 169.94 208.75C156.306 212.86 141.759 212.836 128.139 208.679C109.887 203.087 94.5995 190.483 85.6294 173.633C76.6592 156.783 74.7395 137.062 80.2913 118.798Z" fill="white" fill-opacity="0.2"/>
</g>
<defs>
<filter id="filter0_d_60_80" x="-4" y="0" width="327.577" height="327.577" filterUnits="userSpaceOnUse" color-interpolation-filters="sRGB">
<feFlood flood-opacity="0" result="BackgroundImageFix"/>
<feColorMatrix in="SourceAlpha" type="matrix" values="0 0 0 0 0 0 0 0 0 0 0 0 0 0 0 0 0 0 127 0" result="hardAlpha"/>
<feOffset dy="4"/>
<feGaussianBlur stdDeviation="2"/>
<feComposite in2="hardAlpha" operator="out"/>
<feColorMatrix type="matrix" values="0 0 0 0 0 0 0 0 0 0 0 0 0 0 0 0 0 0 0.25 0"/>
<feBlend mode="normal" in2="BackgroundImageFix" result="effect1_dropShadow_60_80"/>
<feBlend mode="normal" in="SourceGraphic" in2="effect1_dropShadow_60_80" result="shape"/>
</filter>
</defs>
</svg>
