<svg width="117" height="117" viewBox="0 0 117 117" fill="none" xmlns="http://www.w3.org/2000/svg">
<path d="M94.4632 32.6919C93.1259 34.3416 91.8279 35.9428 91.9356 37.397C91.9509 38.8165 93.5961 40.1098 95.1442 41.3245C97.4824 43.3003 99.7538 45.0611 99.8911 47.2227C100.028 49.3843 98.0224 51.8589 96.0119 54.2896L79.7724 74.3731L72.8823 68.788L89.603 48.2101L84.9449 44.4342L79.3551 51.2804L61.1593 36.5309L76.2674 17.9424C77.8013 16.05 80.6566 15.7514 82.4611 17.2945L93.8153 26.4982C95.6984 27.9442 95.9971 30.7995 94.4632 32.6919ZM21.3601 85.6792L58.9568 39.2482L77.1525 53.9976L39.5558 100.429L23.0832 102.152L21.3601 85.6792Z" fill="white" fill-opacity="0.3"/>
</svg>
