<svg width="40" height="40" viewBox="0 0 40 40" fill="none" xmlns="http://www.w3.org/2000/svg">
<path d="M6.66665 33.3333C5.74998 33.3333 4.96498 33.0066 4.31165 32.3533C3.65832 31.7 3.3322 30.9155 3.33332 30V9.99996C3.33332 9.0833 3.65998 8.2983 4.31332 7.64496C4.96665 6.99163 5.75109 6.66552 6.66665 6.66663H33.3333C34.25 6.66663 35.035 6.9933 35.6883 7.64663C36.3416 8.29996 36.6678 9.08441 36.6666 9.99996V30C36.6666 30.9166 36.34 31.7016 35.6866 32.355C35.0333 33.0083 34.2489 33.3344 33.3333 33.3333H6.66665ZM20 21.6666L6.66665 13.3333V30H33.3333V13.3333L20 21.6666ZM20 18.3333L33.3333 9.99996H6.66665L20 18.3333ZM6.66665 13.3333V9.99996V30V13.3333Z" fill="white"/>
</svg>
