<svg width="40" height="40" viewBox="0 0 40 40" fill="none" xmlns="http://www.w3.org/2000/svg">
<path d="M6.66669 3.33337V36.6667L10 35L13.3334 36.6667L16.6667 35L20 36.6667L23.3334 35L26.6667 36.6667L30 35L33.3334 36.6667V3.33337L30 5.00004L26.6667 3.33337L23.3334 5.00004L20 3.33337L16.6667 5.00004L13.3334 3.33337L10 5.00004L6.66669 3.33337Z" stroke="white" stroke-width="2" stroke-linecap="round" stroke-linejoin="round"/>
<path d="M26.6667 13.3334H16.6667C15.7827 13.3334 14.9348 13.6846 14.3097 14.3097C13.6846 14.9348 13.3334 15.7827 13.3334 16.6667C13.3334 17.5508 13.6846 18.3986 14.3097 19.0238C14.9348 19.6489 15.7827 20.0001 16.6667 20.0001H23.3334C24.2174 20.0001 25.0653 20.3513 25.6904 20.9764C26.3155 21.6015 26.6667 22.4494 26.6667 23.3334C26.6667 24.2175 26.3155 25.0653 25.6904 25.6904C25.0653 26.3156 24.2174 26.6667 23.3334 26.6667H13.3334M20 28.3334V11.6667" stroke="white" stroke-width="2" stroke-linecap="round" stroke-linejoin="round"/>
</svg>
