<svg width="34" height="34" viewBox="0 0 34 34" fill="none" xmlns="http://www.w3.org/2000/svg">
<path d="M25.0183 15.8667C24.6925 15.4417 24.2958 15.0733 23.9275 14.705C22.9783 13.855 21.9017 13.2458 20.995 12.3533C18.8842 10.285 18.4167 6.87083 19.7625 4.25C18.4167 4.57583 17.2408 5.3125 16.235 6.12C12.5658 9.06667 11.1208 14.2658 12.8492 18.7283C12.9058 18.87 12.9625 19.0117 12.9625 19.1958C12.9625 19.5075 12.75 19.7908 12.4667 19.9042C12.1408 20.0458 11.8008 19.9608 11.5317 19.7342C11.4508 19.6673 11.3835 19.5855 11.3333 19.4933C9.73249 17.4675 9.47749 14.5633 10.5542 12.24C8.18833 14.1667 6.89916 17.425 7.08333 20.4992C7.16833 21.2075 7.25333 21.9158 7.49416 22.6242C7.69249 23.4742 8.07499 24.3242 8.49999 25.075C10.03 27.5258 12.6792 29.2825 15.5267 29.6367C18.5583 30.0192 21.8025 29.4667 24.1258 27.37C26.7183 25.0183 27.625 21.25 26.2933 18.02L26.1092 17.6517C25.8117 17 25.0183 15.8667 25.0183 15.8667ZM20.5417 24.7917C20.145 25.1317 19.4933 25.5 18.9833 25.6417C17.3967 26.2083 15.81 25.415 14.875 24.48C16.5608 24.0833 17.5667 22.8367 17.8642 21.5758C18.105 20.4425 17.6517 19.5075 17.4675 18.4167C17.2975 17.3683 17.3258 16.4758 17.7083 15.4983C17.9775 16.0367 18.2608 16.575 18.6008 17C19.6917 18.4167 21.4058 19.04 21.7742 20.9667C21.8308 21.165 21.8592 21.3633 21.8592 21.5758C21.9017 22.7375 21.3917 24.0125 20.5417 24.7917Z" fill="white"/>
</svg>
