<svg width="34" height="34" viewBox="0 0 34 34" fill="none" xmlns="http://www.w3.org/2000/svg">
<path d="M15.5833 24.0833H18.4167V15.5833H15.5833V24.0833ZM17 12.75C17.4014 12.75 17.7381 12.614 18.0101 12.342C18.2821 12.07 18.4176 11.7338 18.4167 11.3333C18.4167 10.9319 18.2807 10.5952 18.0087 10.3232C17.7367 10.0512 17.4005 9.9157 17 9.91665C16.5986 9.91665 16.2619 10.0526 15.9899 10.3246C15.7179 10.5966 15.5824 10.9329 15.5833 11.3333C15.5833 11.7347 15.7193 12.0714 15.9913 12.3434C16.2633 12.6154 16.5996 12.7509 17 12.75ZM17 31.1666C15.0403 31.1666 13.1986 30.7945 11.475 30.0503C9.7514 29.3061 8.25209 28.297 6.97709 27.0229C5.70209 25.7479 4.69295 24.2486 3.94968 22.525C3.2064 20.8014 2.83429 18.9597 2.83334 17C2.83334 15.0403 3.20545 13.1986 3.94968 11.475C4.6939 9.75137 5.70304 8.25206 6.97709 6.97706C8.25209 5.70206 9.7514 4.69292 11.475 3.94965C13.1986 3.20637 15.0403 2.83426 17 2.83331C18.9597 2.83331 20.8014 3.20542 22.525 3.94965C24.2486 4.69387 25.7479 5.70301 27.0229 6.97706C28.2979 8.25206 29.3075 9.75137 30.0518 11.475C30.796 13.1986 31.1676 15.0403 31.1667 17C31.1667 18.9597 30.7946 20.8014 30.0503 22.525C29.3061 24.2486 28.297 25.7479 27.0229 27.0229C25.7479 28.2979 24.2486 29.3075 22.525 30.0517C20.8014 30.796 18.9597 31.1676 17 31.1666ZM17 28.3333C20.1639 28.3333 22.8438 27.2354 25.0396 25.0396C27.2354 22.8437 28.3333 20.1639 28.3333 17C28.3333 13.8361 27.2354 11.1562 25.0396 8.9604C22.8438 6.76456 20.1639 5.66665 17 5.66665C13.8361 5.66665 11.1563 6.76456 8.96043 8.9604C6.76459 11.1562 5.66668 13.8361 5.66668 17C5.66668 20.1639 6.76459 22.8437 8.96043 25.0396C11.1563 27.2354 13.8361 28.3333 17 28.3333Z" fill="white"/>
</svg>
