<svg width="34" height="34" viewBox="0 0 34 34" fill="none" xmlns="http://www.w3.org/2000/svg">
<path d="M17 4.25C15.2008 4.25 13.6 5.38333 13.005 7.08333H4.25001V9.91667H7.0125L2.83334 19.8333C2.16751 22.6667 4.25001 24.0833 7.79167 24.0833C11.3333 24.0833 13.5433 22.6667 12.75 19.8333L8.57084 9.91667H12.9908C13.4583 11.1208 14.3792 12.0417 15.5833 12.5092V28.3333H2.83334V31.1667H31.1667V28.3333H18.4167V12.495C19.6208 12.0417 20.5417 11.1208 20.995 9.91667H25.4292L21.25 19.8333C20.5842 22.6667 22.6667 24.0833 26.2083 24.0833C29.75 24.0833 31.96 22.6667 31.1667 19.8333L26.9875 9.91667H29.75V7.08333H21.0092C20.4 5.38333 18.7992 4.25 17 4.25ZM17 7.08333C17.3757 7.08333 17.7361 7.23259 18.0017 7.49827C18.2674 7.76394 18.4167 8.12428 18.4167 8.5C18.4167 8.87572 18.2674 9.23606 18.0017 9.50173C17.7361 9.76741 17.3757 9.91667 17 9.91667C16.6243 9.91667 16.2639 9.76741 15.9983 9.50173C15.7326 9.23606 15.5833 8.87572 15.5833 8.5C15.5833 8.12428 15.7326 7.76394 15.9983 7.49827C16.2639 7.23259 16.6243 7.08333 17 7.08333ZM7.79167 14.5208L9.91667 19.8333H5.66667L7.79167 14.5208ZM26.2083 14.5208L28.3333 19.8333H24.0833L26.2083 14.5208Z" fill="white"/>
</svg>
