<svg width="40" height="28" viewBox="0 0 40 28" fill="none" xmlns="http://www.w3.org/2000/svg">
<path d="M18.2853 26.5576C18.2177 26.828 18.0616 27.0681 17.8419 27.2396C17.6223 27.4112 17.3515 27.5044 17.0728 27.5044C16.9675 27.5049 16.8625 27.4923 16.7603 27.4669L11.7603 26.2169C11.6211 26.182 11.4889 26.1233 11.3697 26.0435L7.61965 23.5435C7.34387 23.3595 7.15247 23.0735 7.08756 22.7484C7.02266 22.4233 7.08956 22.0857 7.27356 21.8099C7.45755 21.5341 7.74356 21.3427 8.06868 21.2778C8.39379 21.2129 8.73137 21.2798 9.00715 21.4638L12.5759 23.8435L17.3665 25.0419C17.5266 25.0807 17.6774 25.1508 17.8103 25.2481C17.9432 25.3454 18.0556 25.4679 18.141 25.6088C18.2263 25.7496 18.283 25.9059 18.3078 26.0688C18.3326 26.2316 18.3249 26.3977 18.2853 26.5576ZM39.0181 11.4857C38.9155 11.7972 38.7523 12.0854 38.5377 12.3334C38.3232 12.5815 38.0616 12.7846 37.7681 12.931L34.0681 14.781L25.4618 23.3888C25.3091 23.5414 25.1194 23.6518 24.9113 23.7093C24.7032 23.7668 24.4838 23.7695 24.2743 23.7169L14.2743 21.2169C14.1223 21.1788 13.9787 21.1125 13.8509 21.0216L5.1759 14.8279L1.38215 12.931C0.789238 12.6346 0.338309 12.1149 0.128515 11.4861C-0.0812785 10.8573 -0.0327606 10.1709 0.263401 9.57788L4.14621 1.81382C4.44261 1.22091 4.96235 0.769978 5.59114 0.560184C6.21993 0.350391 6.90631 0.398909 7.49934 0.69507L10.9462 2.41382L19.2275 0.0481947C19.4521 -0.0160649 19.6903 -0.0160649 19.915 0.0481947L28.1962 2.41382L31.6431 0.69507C32.2361 0.398909 32.9225 0.350391 33.5513 0.560184C34.1801 0.769978 34.6998 1.22091 34.9962 1.81382L38.879 9.57788C39.0271 9.87092 39.1157 10.1904 39.1395 10.5179C39.1634 10.8453 39.1221 11.1743 39.0181 11.4857ZM31.8025 13.5076L27.5509 5.00444H22.579L15.8228 11.5669C17.8009 12.831 20.9025 13.1794 23.6853 10.3748C23.9026 10.1557 24.1933 10.0248 24.5014 10.0072C24.8095 9.98957 25.1132 10.0866 25.354 10.2794L30.7306 14.5873L31.8025 13.5076ZM2.49934 10.6951L5.2634 12.0779L9.14621 4.31382L6.38215 2.93101L2.49934 10.6951ZM28.9478 16.3576L24.6181 12.8904C21.565 15.3904 17.6884 15.7201 14.4759 13.6716C14.1599 13.4706 13.8931 13.2012 13.6952 12.8832C13.4973 12.5652 13.3734 12.2069 13.3326 11.8346C13.2918 11.4623 13.3352 11.0856 13.4595 10.7323C13.5838 10.379 13.7859 10.0582 14.0509 9.79351C14.0547 9.78896 14.0589 9.78477 14.0634 9.78101L21.0728 2.98257L19.5728 2.55445L11.6947 4.80601L7.41809 13.3576L15.1056 18.8498L24.19 21.1201L28.9478 16.3576ZM36.6415 10.6951L32.7634 2.93101L29.9993 4.31382L33.8822 12.0779L36.6415 10.6951Z" fill="white"/>
</svg>
