<svg width="34" height="34" viewBox="0 0 34 34" fill="none" xmlns="http://www.w3.org/2000/svg">
<path d="M12.75 5.3125C12.75 4.47193 12.9993 3.65024 13.4663 2.95133C13.9333 2.25242 14.597 1.70769 15.3736 1.38601C16.1502 1.06434 17.0047 0.980177 17.8291 1.14416C18.6536 1.30815 19.4108 1.71292 20.0052 2.3073C20.5996 2.90167 21.0044 3.65895 21.1683 4.48337C21.3323 5.30779 21.2482 6.16232 20.9265 6.93891C20.6048 7.71549 20.0601 8.37925 19.3612 8.84625C18.6623 9.31324 17.8406 9.5625 17 9.5625C15.8728 9.5625 14.7918 9.11474 13.9948 8.31771C13.1978 7.52068 12.75 6.43967 12.75 5.3125ZM17 7.4375C17.4203 7.4375 17.8311 7.31287 18.1806 7.07937C18.53 6.84588 18.8024 6.514 18.9632 6.1257C19.1241 5.73741 19.1662 5.31014 19.0842 4.89794C19.0022 4.48573 18.7998 4.10709 18.5026 3.8099C18.2054 3.51271 17.8268 3.31033 17.4146 3.22833C17.0024 3.14634 16.5751 3.18842 16.1868 3.34926C15.7985 3.51009 15.4666 3.78246 15.2331 4.13192C14.9996 4.48137 14.875 4.89222 14.875 5.3125C14.875 5.87609 15.0989 6.41659 15.4974 6.8151C15.8959 7.21362 16.4364 7.4375 17 7.4375ZM5.00172 17.8035L11.0009 11.0009C11.3997 10.5487 11.8903 10.1866 12.4398 9.93865C12.9894 9.69066 13.5854 9.56244 14.1884 9.5625H19.8116C20.4146 9.56244 21.0106 9.69066 21.5602 9.93865C22.1098 10.1866 22.6003 10.5487 22.9991 11.0009L28.9983 17.8035C29.4855 18.3018 29.7573 18.9716 29.7553 19.6684C29.7532 20.3653 29.4774 21.0334 28.9872 21.5288C28.4971 22.0242 27.8319 22.3071 27.1351 22.3165C26.4383 22.326 25.7657 22.0613 25.2623 21.5794L23.0974 19.8422L25.2941 28.1934C25.5851 28.8354 25.6091 29.5666 25.3609 30.2263C25.1127 30.886 24.6126 31.42 23.9707 31.711C23.3287 32.0019 22.5975 32.0259 21.9378 31.7777C21.2781 31.5295 20.7441 31.0295 20.4531 30.3875L17 24.4282L13.5469 30.3875C13.2429 31.0079 12.7092 31.4855 12.059 31.7189C11.4087 31.9523 10.6931 31.9232 10.064 31.6378C9.43486 31.3523 8.94169 30.833 8.68912 30.1899C8.43656 29.5469 8.44447 28.8308 8.71118 28.1934L10.9026 19.8422L8.73774 21.5794C8.23433 22.0613 7.56171 22.326 6.86491 22.3165C6.16811 22.3071 5.50293 22.0242 5.01279 21.5288C4.52265 21.0334 4.24681 20.3653 4.24474 19.6684C4.24267 18.9716 4.51454 18.3018 5.00172 17.8035ZM6.53039 20.0308C6.57973 20.0802 6.63832 20.1194 6.70282 20.1461C6.76731 20.1728 6.83644 20.1866 6.90625 20.1866C6.97607 20.1866 7.0452 20.1728 7.10969 20.1461C7.17419 20.1194 7.23278 20.0802 7.28211 20.0308C7.31 20.0042 7.33789 19.9777 7.36844 19.9538L12.0859 16.1713C12.26 16.0323 12.4734 15.9515 12.6959 15.9405C12.9184 15.9294 13.1388 15.9885 13.3258 16.1095C13.5129 16.2305 13.6572 16.4072 13.7383 16.6147C13.8194 16.8221 13.8333 17.0498 13.778 17.2656L10.7392 28.8203C10.7236 28.8819 10.7022 28.942 10.6755 28.9996C10.6448 29.063 10.6271 29.1318 10.6232 29.2021C10.6194 29.2724 10.6296 29.3428 10.6532 29.4091C10.6768 29.4754 10.7134 29.5364 10.7608 29.5885C10.8082 29.6406 10.8654 29.6827 10.9292 29.7124C10.993 29.7422 11.0621 29.759 11.1325 29.7618C11.2028 29.7646 11.273 29.7534 11.339 29.7288C11.405 29.7043 11.4654 29.6669 11.5168 29.6187C11.5682 29.5706 11.6095 29.5127 11.6384 29.4485C11.6514 29.4198 11.666 29.3919 11.6822 29.3648L16.0809 21.7813C16.1743 21.6202 16.3084 21.4866 16.4697 21.3937C16.631 21.3008 16.8139 21.2519 17 21.2519C17.1861 21.2519 17.369 21.3008 17.5303 21.3937C17.6916 21.4866 17.8257 21.6202 17.9191 21.7813L22.3125 29.3582C22.3287 29.3852 22.3433 29.4132 22.3563 29.4419C22.3858 29.5052 22.4275 29.5621 22.479 29.6092C22.5305 29.6564 22.5908 29.693 22.6565 29.7168C22.7553 29.753 22.8626 29.7591 22.9648 29.7342C23.0671 29.7093 23.1596 29.6547 23.2308 29.5771C23.3019 29.4996 23.3484 29.4027 23.3644 29.2987C23.3804 29.1947 23.3651 29.0883 23.3206 28.993C23.2938 28.9353 23.2724 28.8753 23.2568 28.8137L20.222 17.2656C20.1667 17.0498 20.1806 16.8221 20.2617 16.6147C20.3428 16.4072 20.4871 16.2305 20.6742 16.1095C20.8612 15.9885 21.0816 15.9294 21.3041 15.9405C21.5266 15.9515 21.74 16.0323 21.9141 16.1713L26.6316 19.9538C26.6621 19.9777 26.69 20.0042 26.7179 20.0308C26.7667 20.0822 26.8253 20.1234 26.8902 20.1518C26.9552 20.1803 27.0252 20.1954 27.0961 20.1964C27.167 20.1974 27.2374 20.1841 27.3031 20.1575C27.3688 20.1308 27.4285 20.0913 27.4787 20.0412C27.5289 19.9911 27.5685 19.9315 27.5953 19.8658C27.6221 19.8001 27.6354 19.7298 27.6346 19.6589C27.6337 19.588 27.6187 19.518 27.5904 19.453C27.562 19.388 27.521 19.3293 27.4696 19.2804C27.4537 19.2645 27.4391 19.2485 27.4245 19.2313L21.4054 12.406C21.2059 12.1801 20.9606 11.9992 20.6858 11.8753C20.4111 11.7514 20.1131 11.6874 19.8116 11.6875H14.1884C13.8869 11.6874 13.589 11.7514 13.3142 11.8753C13.0394 11.9992 12.7941 12.1801 12.5946 12.406L6.57555 19.2313C6.56094 19.2485 6.54633 19.2645 6.53039 19.2804C6.43104 19.38 6.37525 19.5149 6.37525 19.6556C6.37525 19.7963 6.43104 19.9312 6.53039 20.0308Z" fill="white"/>
</svg>
